HIERARCHY
ROOT root
{
	OFFSET 0.000000 0.000000 0.000000
	CHANNELS 6 Xposition Yposition Zposition Zrotation Yrotation Xrotation
	JOINT lhip
	{
		OFFSET 0.058581 -0.082280 -0.017664
		CHANNELS 3 Zrotation Yrotation Xrotation
		JOINT lknee
		{
			OFFSET 0.043451 -0.386469 0.008037
			CHANNELS 3 Zrotation Yrotation Xrotation
			JOINT lankle
			{
				OFFSET -0.014790 -0.426874 -0.037428
				CHANNELS 3 Zrotation Yrotation Xrotation
				JOINT ltoe
				{
					OFFSET 0.041054 -0.060286 0.122042
					CHANNELS 3 Zrotation Yrotation Xrotation
					End Site
					{
						OFFSET 0.000000 0.000000 0.000000
					}
				}
			}
		}
	}
	JOINT rhip
	{
		OFFSET -0.060310 -0.090513 -0.013543
		CHANNELS 3 Zrotation Yrotation Xrotation
		JOINT rknee
		{
			OFFSET -0.043257 -0.383688 -0.004843
			CHANNELS 3 Zrotation Yrotation Xrotation
			JOINT rankle
			{
				OFFSET 0.019056 -0.420046 -0.034562
				CHANNELS 3 Zrotation Yrotation Xrotation
				JOINT rtoe
				{
					OFFSET -0.034840 -0.062106 0.130323
					CHANNELS 3 Zrotation Yrotation Xrotation
					End Site
					{
						OFFSET 0.000000 0.000000 0.000000
					}
				}
			}
		}
	}
	JOINT lowerback
	{
		OFFSET 0.004439 0.124404 -0.038385
		CHANNELS 3 Zrotation Yrotation Xrotation
		JOINT upperback
		{
			OFFSET 0.004488 0.137956 0.026820
			CHANNELS 3 Zrotation Yrotation Xrotation
			JOINT chest
			{
				OFFSET -0.002265 0.056032 0.002855
				CHANNELS 3 Zrotation Yrotation Xrotation
				JOINT lowerneck
				{
					OFFSET -0.013390 0.211636 -0.033468
					CHANNELS 3 Zrotation Yrotation Xrotation
					JOINT upperneck
					{
						OFFSET 0.010113 0.088937 0.050410
						CHANNELS 3 Zrotation Yrotation Xrotation
						End Site
						{
							OFFSET 0.000000 0.000000 0.000000
						}
					}
				}
				JOINT lclavicle
				{
					OFFSET 0.071702 0.114000 -0.018898
					CHANNELS 3 Zrotation Yrotation Xrotation
					JOINT lshoulder
					{
						OFFSET 0.122921 0.045205 -0.019046
						CHANNELS 3 Zrotation Yrotation Xrotation
						JOINT lelbow
						{
							OFFSET 0.255332 -0.015649 -0.022946
							CHANNELS 3 Zrotation Yrotation Xrotation
							JOINT lwrist
							{
								OFFSET 0.265709 0.012698 -0.007375
								CHANNELS 3 Zrotation Yrotation Xrotation
								End Site
								{
									OFFSET 0.000000 0.000000 0.000000
								}
							}
						}
					}
				}
				JOINT rclavicle
				{
					OFFSET -0.082954 0.112472 -0.023707
					CHANNELS 3 Zrotation Yrotation Xrotation
					JOINT rshoulder
					{
						OFFSET -0.113228 0.046853 -0.008472
						CHANNELS 3 Zrotation Yrotation Xrotation
						JOINT relbow
						{
							OFFSET -0.260127 -0.014369 -0.031269
							CHANNELS 3 Zrotation Yrotation Xrotation
							JOINT rwrist
							{
								OFFSET -0.269108 0.006794 -0.006027
								CHANNELS 3 Zrotation Yrotation Xrotation
								End Site
								{
									OFFSET 0.000000 0.000000 0.000000
								}
							}
						}
					}
				}
			}
		}
	}
}
MOTION
Frames: 14
Frame Time: 0.033333
1.281574 0.687482 0.999569 -93.108673 0.178569 86.854480 -3.255546 -1.323958 -0.971543 -0.079033 -7.483576 6.758112 4.309660 13.877707 -13.381449 0.000000 -0.000000 0.000000 3.309867 -1.463837 -1.426495 -2.748334 1.590924 8.724800 0.818824 -10.746012 -13.272369 0.000000 -0.000000 0.000000 -1.188036 2.767978 11.212772 -0.275644 -3.558435 4.011503 -0.726838 -0.262761 -2.074335 1.548206 -1.120660 -10.970221 8.095556 0.220145 -2.014492 -24.316561 -7.275548 -0.896715 -49.982185 -6.076283 11.997471 1.078365 -16.488403 -0.232799 -9.096844 -2.813487 3.849601 22.601069 10.068914 0.293701 55.110640 0.857821 18.953887 -3.194172 25.622620 11.466424 6.097686 3.886566 12.435885 
1.281628 0.687649 0.999172 -93.369219 0.133804 86.872931 -3.223395 -1.448993 -1.369256 -0.359198 -7.370341 7.514723 4.416268 14.177946 -13.722739 0.000000 -0.000000 0.000000 3.288387 -1.223152 -1.871472 -2.693695 1.618704 9.526649 0.625257 -10.895400 -13.520798 0.000000 -0.000000 0.000000 -1.219985 2.810233 11.653521 -0.309812 -3.495245 3.926706 -0.728254 -0.213030 -2.094675 1.606394 -1.171692 -11.111304 8.193176 0.223232 -1.945121 -24.340926 -7.334430 -0.880425 -50.011725 -6.228904 11.974219 1.461208 -16.388164 -0.600257 -9.295905 -3.028057 3.722235 22.581349 10.303260 0.413625 55.222872 0.852527 18.887052 -3.625239 25.162523 10.901202 6.343498 3.796346 11.771174 
1.281607 0.687602 0.998371 -93.452807 0.150147 87.017138 -3.168845 -1.642057 -2.137224 -0.610257 -7.084248 8.717428 4.577744 14.295833 -14.144507 0.000000 -0.000000 0.000000 3.255652 -1.039747 -2.506856 -2.529691 1.682469 10.462596 0.472572 -11.025295 -13.820533 0.000000 -0.000000 0.000000 -1.120656 2.809634 11.840887 -0.323163 -3.514313 3.922321 -0.793760 -0.282705 -2.073096 1.750095 -1.135547 -11.498769 8.030728 0.207045 -1.904138 -24.325539 -7.334339 -1.010991 -50.303324 -6.366351 11.988561 1.722294 -16.130132 -0.707423 -9.189589 -2.924516 3.726490 22.578256 10.271970 0.444224 55.326142 0.999178 18.788757 -3.723390 24.892246 10.737638 6.316613 3.898437 11.661850 
1.282111 0.687689 0.997133 -93.720462 0.120152 87.065464 -3.076429 -1.894411 -3.056824 -1.088004 -6.883483 10.412806 4.803892 14.653036 -14.875779 0.000000 -0.000000 0.000000 3.232849 -0.769409 -3.376344 -2.386012 1.769885 11.952524 0.265258 -11.155635 -14.445774 0.000000 -0.000000 0.000000 -1.067034 2.945298 11.960871 -0.272253 -3.545742 4.333570 -0.897998 -0.320979 -2.024386 1.780588 -0.915504 -11.988559 8.039879 0.209171 -2.002141 -24.383852 -7.483139 -1.066635 -50.531169 -6.582862 11.903453 1.942049 -16.168205 -1.205453 -9.303670 -2.974238 3.795443 22.638838 10.381064 0.325716 55.354650 1.086190 18.719296 -3.839031 25.021841 10.589858 6.424409 3.935090 11.727702 
1.282017 0.687795 0.995457 -93.974817 0.087773 87.054110 -2.925506 -2.083580 -4.007990 -1.710182 -6.576924 12.357567 5.080274 15.026807 -15.698057 0.000000 -0.000000 0.000000 3.233268 -0.443468 -4.146247 -2.273154 1.837255 13.469569 -0.105730 -11.342001 -15.203389 0.000000 -0.000000 0.000000 -1.010891 2.948861 12.601673 -0.301432 -3.443283 4.035531 -0.964089 -0.263134 -2.110140 1.869508 -0.903065 -12.268173 7.992019 0.271643 -1.806286 -24.593623 -7.536847 -1.180322 -50.828007 -6.629449 11.999063 2.127428 -15.969987 -1.226866 -9.304116 -2.974425 3.851555 22.832426 10.364169 0.407136 55.445861 1.030549 18.686958 -4.012375 25.034783 10.595632 6.497652 4.111235 11.731318 
1.282274 0.687915 0.992969 -94.151928 0.141389 86.936110 -2.687002 -2.352227 -5.149129 -2.329046 -6.056212 14.797362 5.226627 15.230196 -16.760585 0.000000 -0.000000 0.000000 3.272494 -0.218415 -4.949370 -2.072821 1.833295 15.234149 -0.430368 -11.423773 -16.030035 0.000000 -0.000000 0.000000 -0.910225 3.037014 12.816841 -0.265305 -3.509393 4.535813 -0.981447 -0.247862 -2.017183 1.963724 -0.520779 -12.554145 7.892423 0.150632 -1.895964 -24.697432 -8.166354 -0.921935 -51.268824 -6.914080 11.931490 2.454577 -16.014236 -1.365662 -9.224112 -3.032835 3.759747 22.942241 10.952479 0.703652 55.551206 1.309768 18.481688 -4.313245 24.979933 10.126952 6.384085 3.955651 11.179920 
1.282408 0.687886 0.989716 -94.260706 0.147326 86.863666 -2.475401 -2.575141 -6.436004 -3.060396 -5.703145 17.443616 5.606284 15.590039 -17.946205 0.000000 -0.000000 0.000000 3.273601 0.164303 -6.052997 -1.871060 1.792277 17.544591 -0.715817 -11.759079 -17.006110 0.000000 -0.000000 0.000000 -0.816619 3.036383 13.707697 -0.231032 -3.447169 4.026993 -1.000768 -0.292318 -1.948464 2.071295 -0.564755 -13.032144 7.729776 0.137848 -1.653551 -24.762652 -8.243619 -1.085257 -51.971951 -7.113706 12.145017 2.516520 -15.883892 -1.020111 -9.000197 -3.066406 3.907584 23.005222 10.897987 0.484749 55.773109 1.300294 18.555005 -4.393612 25.084538 10.503293 6.118277 4.287994 11.536694 
1.282404 0.688016 0.985540 -94.475675 0.202199 86.736853 -2.136039 -2.702020 -7.788723 -3.736598 -4.991378 20.334009 5.735684 16.096837 -19.577144 0.000000 -0.000000 0.000000 3.284469 0.423455 -7.200273 -1.563698 1.771080 20.060833 -1.032276 -11.979875 -18.334187 0.000000 -0.000000 0.000000 -0.751524 3.105666 14.357844 -0.181966 -3.418528 3.996546 -0.981889 -0.258689 -1.964521 2.156309 -0.211932 -13.391698 7.562877 0.240965 -1.897622 -24.870816 -8.686283 -1.059629 -52.592630 -7.200571 12.336808 2.532419 -16.096285 -0.779351 -9.426214 -2.814801 3.606011 23.045020 11.304917 0.649907 55.948219 1.387788 18.434510 -4.485653 25.023750 10.183985 6.328974 4.147462 10.591285 
1.282794 0.688090 0.979897 -94.510775 0.334674 86.664360 -1.624738 -2.886528 -9.740242 -4.742798 -4.343853 24.142622 5.886636 16.720315 -21.483206 0.000000 -0.000000 0.000000 3.344487 0.680914 -8.883455 -1.147681 1.714745 23.404560 -1.353424 -12.320549 -20.035170 0.000000 -0.000000 0.000000 -0.598836 3.128178 15.364617 -0.074692 -3.439511 3.470660 -0.977313 -0.274295 -2.048111 2.274065 -0.209684 -13.763038 7.445444 0.319651 -1.929851 -24.840513 -9.018301 -1.142088 -53.328063 -7.238210 12.621140 2.432376 -16.333901 -0.635607 -8.799768 -2.587378 3.289960 23.028853 11.502944 0.531514 56.105407 1.311071 18.498692 -4.310123 25.077307 10.454596 6.049097 4.247310 10.412345 
1.284910 0.687074 0.969996 -94.530218 0.476075 87.005837 -0.781997 -4.733962 -12.663685 -4.787073 -0.750918 28.767216 6.011317 16.198813 -26.239132 0.000000 -0.000000 0.000000 3.242605 2.986550 -11.824953 -1.440255 -0.528906 28.427531 0.303467 -11.811387 -24.801605 0.000000 -0.000000 0.000000 -0.053934 2.199709 17.821167 -1.321462 -1.867265 -2.842956 -0.102506 -0.534565 2.738845 2.754889 2.384324 -17.400515 6.203753 -2.556076 -0.440012 -23.793466 -8.056769 -1.407263 -54.648382 -9.734038 10.258755 -0.047285 -15.775246 5.264175 -10.085971 -1.472712 -0.467758 20.859210 9.294753 -0.321149 58.271484 2.640003 19.122589 -3.830819 26.525488 14.628851 5.188145 0.196243 8.313172 
1.284869 0.686330 0.959163 -94.410652 0.398128 86.994240 -0.613424 -4.875003 -15.003615 -5.386965 -0.201403 33.305114 6.836228 16.584587 -28.534657 0.000000 -0.000000 0.000000 2.927165 3.245172 -14.261179 -1.012717 -0.865386 33.152106 -0.150356 -12.350199 -27.293843 0.000000 -0.000000 0.000000 -0.085115 2.134042 18.647565 -1.273865 -1.762841 -3.327979 -0.101432 -0.605379 3.210122 2.834488 2.395463 -18.553751 6.055662 -2.525585 -0.541558 -23.539598 -8.891949 -1.149945 -55.351804 -10.222494 9.947336 0.067434 -16.168311 5.884970 -9.472249 -1.843462 -0.566215 19.815818 9.754109 -0.521319 59.668558 2.718814 19.110508 -4.792665 26.892271 14.654455 5.615773 0.024207 7.729506 
1.284272 0.686118 0.946474 -94.174519 0.283738 86.881859 -0.631306 -5.088375 -17.288431 -5.683325 0.447054 37.972847 7.265258 16.906011 -30.922909 0.000000 -0.000000 0.000000 2.732391 3.450675 -16.491383 -1.153286 -1.496120 37.821629 -0.618133 -12.653947 -29.691125 0.000000 -0.000000 0.000000 -0.081196 2.012438 20.026138 -1.269701 -1.753536 -4.134684 -0.102339 -0.709567 3.394491 2.839230 2.805310 -19.556488 5.852336 -2.376919 -1.175439 -23.759486 -9.584298 -1.046374 -55.647836 -10.456243 9.922505 0.484037 -16.216139 6.010966 -9.319351 -1.824447 -1.082794 19.683433 9.918099 -0.624883 60.072164 2.904626 18.855811 -5.128336 26.809368 14.881562 5.491140 0.376884 7.071838 
1.284089 0.685628 0.933041 -93.704301 0.470220 87.008847 -0.374738 -6.017305 -20.146207 -5.913906 1.097442 43.103686 8.011682 17.606621 -32.609203 0.000000 -0.000000 0.000000 2.826454 3.899189 -18.929896 -1.357014 -2.135329 42.479995 -1.168314 -13.392410 -32.086906 0.000000 -0.000000 0.000000 0.304589 1.756728 21.968649 -1.275837 -1.789552 -5.888172 -0.005075 -0.887808 3.323223 2.638735 2.644952 -20.182718 5.838550 -1.944271 -1.639342 -24.014392 -10.069119 -0.688067 -56.114297 -10.431726 9.510744 1.138468 -16.384919 5.688079 -9.052141 -1.685731 -1.213851 19.604836 10.473300 -0.147599 60.044729 2.982067 18.402617 -5.223682 26.696187 15.243431 5.121142 1.015117 7.254410 
1.283687 0.685104 0.918553 -93.168582 0.345895 87.146213 -0.613671 -7.180246 -22.754736 -5.694264 1.787865 47.801752 8.686243 18.533355 -34.367742 0.000000 -0.000000 0.000000 2.602011 4.667757 -21.397904 -1.682252 -2.757677 47.195136 -1.600674 -14.681573 -33.957677 0.000000 -0.000000 0.000000 0.105655 1.715977 22.876060 -0.989262 -1.722652 -5.801402 0.241733 -1.026289 2.994411 2.533816 2.506697 -21.537724 5.364163 -1.915019 -2.323644 -23.933535 -10.902490 0.009789 -56.995398 -10.836532 9.483957 2.555374 -16.874978 4.960056 -8.553681 -1.947867 -2.211567 19.393217 11.157566 0.172902 59.802653 3.229714 18.251413 -5.414764 26.666485 15.242488 4.835513 1.250314 6.082731 
